<svg width="658" height="742" viewBox="0 0 658 742" fill="none" xmlns="http://www.w3.org/2000/svg">
<path d="M105.661 177.072C105.661 118.08 153.483 70.2586 212.474 70.2586H550.189C609.18 70.2586 657.002 118.081 657.002 177.072V524.811C657.002 583.802 609.18 631.624 550.189 631.624H105.661V177.072Z" fill="#FF6A5A" fill-opacity="0.3"/>
<path d="M5.41724 106.901C5.41724 47.9097 53.2391 0.0879364 112.23 0.0879364H449.945C508.936 0.0879364 556.758 47.9098 556.758 106.901V454.64C556.758 513.632 508.936 561.454 449.945 561.454H5.41724V106.901Z" fill="url(#paint0_linear_2_222)"/>
<path d="M105.662 281.079C105.662 238.308 114.868 200.267 133.28 166.955C151.692 133.232 177.265 107.117 209.997 88.6108C243.139 69.693 280.577 60.234 322.311 60.234C373.456 60.234 417.236 73.8055 453.651 100.948C490.067 128.091 514.411 165.105 526.686 211.988H411.303C402.711 193.893 390.436 180.115 374.479 170.657C358.931 161.198 341.133 156.468 321.084 156.468C288.76 156.468 262.574 167.778 242.526 190.397C222.477 213.016 212.452 243.243 212.452 281.079C212.452 318.915 222.477 349.142 242.526 371.761C262.574 394.38 288.76 405.69 321.084 405.69C341.133 405.69 358.931 400.96 374.479 391.501C390.436 382.042 402.711 368.265 411.303 350.17H526.686C514.411 397.053 490.067 434.066 453.651 461.209C417.236 487.941 373.456 501.307 322.311 501.307C280.577 501.307 243.139 492.054 209.997 473.547C177.265 454.629 151.692 428.514 133.28 395.203C114.868 361.891 105.662 323.85 105.662 281.079Z" fill="white"/>
<path fill-rule="evenodd" clip-rule="evenodd" d="M520.485 370.219C506.988 407.729 484.71 438.059 453.651 461.21C417.236 487.941 373.456 501.307 322.311 501.307C280.577 501.307 243.139 492.054 209.997 473.547C177.264 454.63 151.692 428.515 133.28 395.203C114.868 361.891 105.662 323.85 105.662 281.079C105.662 238.309 114.868 200.267 133.28 166.956C151.692 133.232 177.264 107.118 209.997 88.6111C243.139 69.6933 280.577 60.2343 322.311 60.2343C373.456 60.2343 417.236 73.8058 453.651 100.949C484.71 124.099 506.988 154.429 520.485 191.939C522.813 198.409 524.88 205.092 526.686 211.988H411.303C402.711 193.893 390.436 180.116 374.479 170.657C358.931 161.198 341.132 156.468 321.084 156.468C288.76 156.468 262.574 167.778 242.525 190.397C222.476 213.016 212.452 243.244 212.452 281.079C212.452 318.915 222.476 349.142 242.525 371.761C262.574 394.381 288.76 405.69 321.084 405.69C341.132 405.69 358.931 400.961 374.479 391.502C390.436 382.043 402.711 368.266 411.303 350.17H526.686C524.88 357.067 522.813 363.75 520.485 370.219ZM200.094 71.179C164.061 91.5601 135.864 120.404 115.708 157.302C95.4768 193.924 85.6128 235.362 85.6128 281.079C85.6128 326.815 95.4849 368.268 115.733 404.901C135.895 441.379 164.055 470.152 199.965 490.906L200.093 490.98L200.222 491.052C236.642 511.389 277.504 521.356 322.311 521.356C377.135 521.356 425.213 506.956 465.515 477.371L465.574 477.328L465.633 477.284C505.949 447.234 532.737 406.215 546.081 355.248L552.659 330.122H398.629L393.192 341.571C386.167 356.365 376.506 366.994 364.256 374.255L364.157 374.314L364.059 374.374C351.964 381.731 337.842 385.641 321.084 385.641C294.047 385.641 273.484 376.464 257.529 358.463C241.489 340.367 232.501 315.294 232.501 281.079C232.501 246.865 241.489 221.791 257.529 203.696C273.484 185.695 294.047 176.517 321.084 176.517C337.842 176.517 351.964 180.427 364.059 187.785L364.157 187.845L364.256 187.903C376.506 195.165 386.167 205.794 393.192 220.588L398.629 232.037H552.659L546.081 206.91C532.737 155.943 505.949 114.925 465.633 84.8741C425.325 54.8297 377.203 40.1856 322.311 40.1856C277.441 40.1856 236.533 50.3877 200.094 71.179Z" fill="white"/>
<path d="M0.626465 705.889C0.626465 698.964 2.1115 692.805 5.08157 687.412C8.05165 681.952 12.1767 677.724 17.4569 674.727C22.803 671.664 28.8422 670.133 35.5743 670.133C43.8245 670.133 50.8867 672.33 56.7608 676.725C62.635 681.119 66.5621 687.112 68.5421 694.703H49.9297C48.5436 691.773 46.5636 689.543 43.9895 688.011C41.4815 686.48 38.6104 685.714 35.3763 685.714C30.1622 685.714 25.9381 687.545 22.704 691.207C19.4699 694.869 17.8529 699.763 17.8529 705.889C17.8529 712.015 19.4699 716.909 22.704 720.572C25.9381 724.234 30.1622 726.065 35.3763 726.065C38.6104 726.065 41.4815 725.299 43.9895 723.768C46.5636 722.236 48.5436 720.006 49.9297 717.076H68.5421C66.5621 724.667 62.635 730.659 56.7608 735.054C50.8867 739.382 43.8245 741.546 35.5743 741.546C28.8422 741.546 22.803 740.048 17.4569 737.052C12.1767 733.989 8.05165 729.76 5.08157 724.367C2.1115 718.974 0.626465 712.814 0.626465 705.889Z" fill="white"/>
<path d="M130.985 712.282C130.985 713.88 130.886 715.544 130.688 717.276H92.3739C92.6379 720.738 93.7269 723.402 95.6409 725.266C97.621 727.064 100.03 727.963 102.868 727.963C107.092 727.963 110.029 726.165 111.679 722.569H129.698C128.774 726.231 127.091 729.527 124.649 732.457C122.273 735.387 119.27 737.684 115.639 739.349C112.009 741.013 107.95 741.846 103.462 741.846C98.05 741.846 93.2319 740.681 89.0078 738.35C84.7837 736.02 81.4836 732.69 79.1075 728.362C76.7315 724.034 75.5434 718.974 75.5434 713.181C75.5434 707.388 76.6985 702.327 79.0085 697.999C81.3846 693.671 84.6847 690.342 88.9088 688.011C93.1329 685.681 97.984 684.515 103.462 684.515C108.808 684.515 113.56 685.647 117.718 687.911C121.877 690.175 125.111 693.405 127.421 697.599C129.797 701.794 130.985 706.688 130.985 712.282ZM113.659 707.787C113.659 704.857 112.669 702.527 110.689 700.796C108.709 699.064 106.234 698.199 103.264 698.199C100.426 698.199 98.017 699.031 96.0369 700.696C94.1229 702.36 92.9349 704.724 92.4729 707.787H113.659Z" fill="white"/>
<path d="M156.845 667.136V741.047H139.916V667.136H156.845Z" fill="white"/>
<path d="M186.043 667.136V741.047H169.114V667.136H186.043Z" fill="white"/>
<path d="M194.946 713.081C194.946 707.354 196.002 702.327 198.114 697.999C200.292 693.671 203.229 690.342 206.925 688.011C210.621 685.681 214.746 684.515 219.3 684.515C223.194 684.515 226.594 685.314 229.498 686.912C232.468 688.51 234.745 690.608 236.329 693.205V685.314H253.258V741.047H236.329V733.156C234.679 735.753 232.369 737.851 229.399 739.449C226.495 741.047 223.095 741.846 219.201 741.846C214.713 741.846 210.621 740.681 206.925 738.35C203.229 735.953 200.292 732.59 198.114 728.262C196.002 723.868 194.946 718.807 194.946 713.081ZM236.329 713.181C236.329 708.919 235.141 705.556 232.765 703.093C230.455 700.629 227.617 699.397 224.25 699.397C220.884 699.397 218.013 700.629 215.637 703.093C213.327 705.49 212.172 708.819 212.172 713.081C212.172 717.342 213.327 720.738 215.637 723.268C218.013 725.732 220.884 726.964 224.25 726.964C227.617 726.964 230.455 725.732 232.765 723.268C235.141 720.805 236.329 717.442 236.329 713.181Z" fill="white"/>
<path d="M382.122 670.932L364.005 741.047H343.511L332.423 694.903L320.939 741.047H300.445L282.823 670.932H300.94L310.939 721.97L323.315 670.932H341.927L353.808 721.97L363.906 670.932H382.122Z" fill="white"/>
<path d="M415.759 741.846C410.347 741.846 405.463 740.681 401.107 738.35C396.817 736.02 393.417 732.69 390.909 728.362C388.467 724.034 387.246 718.974 387.246 713.181C387.246 707.454 388.5 702.427 391.008 698.099C393.516 693.704 396.949 690.342 401.305 688.011C405.661 685.681 410.545 684.515 415.957 684.515C421.369 684.515 426.253 685.681 430.609 688.011C434.966 690.342 438.398 693.704 440.906 698.099C443.414 702.427 444.668 707.454 444.668 713.181C444.668 718.907 443.381 723.967 440.807 728.362C438.299 732.69 434.833 736.02 430.411 738.35C426.055 740.681 421.171 741.846 415.759 741.846ZM415.759 727.064C418.993 727.064 421.732 725.865 423.976 723.468C426.286 721.071 427.441 717.642 427.441 713.181C427.441 708.719 426.319 705.29 424.075 702.893C421.897 700.496 419.191 699.297 415.957 699.297C412.657 699.297 409.918 700.496 407.74 702.893C405.562 705.224 404.473 708.653 404.473 713.181C404.473 717.642 405.529 721.071 407.641 723.468C409.819 725.865 412.525 727.064 415.759 727.064Z" fill="white"/>
<path d="M470.579 694.603C472.559 691.54 475.034 689.143 478.004 687.412C480.974 685.614 484.274 684.715 487.904 684.715V702.793H483.251C479.027 702.793 475.859 703.725 473.747 705.59C471.635 707.388 470.579 710.584 470.579 715.178V741.047H453.649V685.314H470.579V694.603Z" fill="white"/>
<path d="M529.756 741.047L512.925 717.675V741.047H495.996V667.136H512.925V707.987L529.657 685.314H550.546L527.578 713.28L550.744 741.047H529.756Z" fill="white"/>
<path d="M579.669 741.846C574.851 741.846 570.561 741.013 566.799 739.349C563.037 737.684 560.067 735.42 557.889 732.557C555.711 729.627 554.49 726.365 554.226 722.769H570.957C571.155 724.7 572.046 726.265 573.63 727.463C575.214 728.662 577.161 729.261 579.471 729.261C581.583 729.261 583.2 728.862 584.322 728.063C585.51 727.197 586.104 726.098 586.104 724.767C586.104 723.168 585.279 722.003 583.629 721.271C581.979 720.472 579.306 719.606 575.61 718.674C571.65 717.742 568.35 716.776 565.71 715.777C563.07 714.712 560.793 713.081 558.879 710.883C556.965 708.619 556.008 705.59 556.008 701.794C556.008 698.598 556.866 695.702 558.582 693.105C560.364 690.441 562.938 688.344 566.304 686.813C569.736 685.281 573.795 684.515 578.481 684.515C585.411 684.515 590.856 686.247 594.817 689.709C598.843 693.171 601.153 697.766 601.747 703.492H586.104C585.84 701.561 584.982 700.03 583.53 698.898C582.144 697.766 580.296 697.2 577.986 697.2C576.006 697.2 574.488 697.599 573.432 698.398C572.376 699.131 571.848 700.163 571.848 701.495C571.848 703.093 572.673 704.291 574.323 705.09C576.039 705.889 578.679 706.688 582.243 707.487C586.335 708.553 589.668 709.618 592.242 710.684C594.817 711.682 597.061 713.347 598.975 715.678C600.955 717.941 601.978 721.004 602.044 724.866C602.044 728.129 601.12 731.059 599.272 733.656C597.49 736.186 594.883 738.184 591.45 739.648C588.084 741.113 584.157 741.846 579.669 741.846Z" fill="white"/>
<path d="M620.321 741.846C617.351 741.846 614.909 740.98 612.995 739.249C611.147 737.451 610.223 735.254 610.223 732.657C610.223 729.994 611.147 727.763 612.995 725.965C614.909 724.167 617.351 723.268 620.321 723.268C623.225 723.268 625.601 724.167 627.449 725.965C629.363 727.763 630.321 729.994 630.321 732.657C630.321 735.254 629.363 737.451 627.449 739.249C625.601 740.98 623.225 741.846 620.321 741.846Z" fill="white"/>
<defs>
<linearGradient id="paint0_linear_2_222" x1="5.41722" y1="561.454" x2="506.637" y2="40.1855" gradientUnits="userSpaceOnUse">
<stop stop-color="#FE406E"/>
<stop offset="1" stop-color="#FE735B"/>
</linearGradient>
</defs>
</svg>
